<svg id="Capa_1" data-name="Capa 1" xmlns="http://www.w3.org/2000/svg" viewBox="0 0 228.29 228.29"><defs><style>.cls-1{fill:#4a50ab;}</style></defs><path class="cls-1" d="M94.4,23q33.67,0,67.36,0a9.67,9.67,0,0,1,6.1,2Q185.37,37.85,203,50.63c3.74,2.72,3.71,2,3.69,7.36,0,4.47,0,8.95,0,13.42,0,2.54-1,3.51-3.6,3.49-.92,0-1.83.12-2.75.12-58.33-.24-116.66-.08-175-.14a11.49,11.49,0,0,1-1.44,0,2.88,2.88,0,0,1-2.5-2.91c.24-11.38,0-22.77.1-34.15,0-3.52,0-7,0-10.55C21.51,24.44,23,23,25.72,23H94.4Zm19.67,46.21v0q20,0,39.91,0,22.77,0,45.55,0c1.13,0,1.56-.29,1.51-1.47-.11-2.8-.16-5.59-.14-8.39,0-1.11-.37-1.26-1.35-1-3.52.92-7.05,1.78-10.58,2.66q-9.83,2.46-19.64,4.92c-2.62.64-4.12-.51-4.21-3.18,0-.52,0-1-.08-1.56q-1.78-15.34-3.58-30.69c-.21-1.76-.21-1.77-2-1.77H29.09c-1.81,0-1.82,0-1.82,1.88V67.35c0,1.88,0,1.88,1.93,1.88Zm53.52-37.35c-.32.4-.17.71-.14,1q1.5,12.65,3,25.31c.18,1.54.16,1.56,1.67,1.18q11.63-2.89,23.23-5.81c.38-.1,1,0,1.09-.48s-.5-.56-.82-.79L169.7,33.37Z"/><path class="cls-1" d="M113.9,205.3H25.08c-2.52,0-3.59-1.06-3.59-3.55q0-22.29,0-44.58a10.11,10.11,0,0,1,.12-1.91A2.72,2.72,0,0,1,25.16,153a10.5,10.5,0,0,0,2.5.19l174.15,0c.48,0,1,0,1.44,0a3.15,3.15,0,0,1,3.38,3.39c.06,2.12,0,4.24,0,6.36,0,6.39-.07,12.78.06,19.17.13,6.19.08,12.38.15,18.58,0,3.27-1.26,4.59-4.53,4.59H113.9Zm.29-5.67h85.23c1,0,1.72,0,1.7-1.41-.15-12.35.07-24.7-.22-37-.06-2.37.12-2.23-2.34-2.23h-.12c-49.35-.09-98.7.14-148-.14-7.15,0-14.3,0-21.45,0-1.66,0-1.67,0-1.67,1.66v37.28c0,1.88,0,1.88,1.93,1.88Z"/><path class="cls-1" d="M114,139.13H26.1c-3.75,0-4.55-.74-4.55-4.49q0-21.21-.07-42.43c0-2.57,1.15-3.81,3.74-3.71,5.55.21,11.11.1,16.66.11,6.33,0,12.67-.09,19-.09,9.62,0,19.24.09,28.87.09,7.17,0,14.34-.07,21.51-.08s14.42.06,21.62.07c5.15,0,10.29-.06,15.43-.06,5.37,0,10.75,0,16.13,0h29.7c3,0,6,0,9,0a3.1,3.1,0,0,1,3.41,2.85,10.55,10.55,0,0,1,.13,2q0,19,0,38.12a26.65,26.65,0,0,0,.19,4.18,2.64,2.64,0,0,1-2.17,3.1,9,9,0,0,1-2.26.16H114Zm0-5.8v0H198.8c2.07,0,2.08,0,2.08-2V96.06c0-1.78,0-1.79-1.79-1.79H29c-1.74,0-1.75,0-1.74,1.71q0,17.86,0,35.72c0,1.76,0,1.77,1.77,1.76,13.23-.07,26.45,0,39.67-.1C83.82,133.22,98.88,133.33,114,133.33Z"/></svg>