<svg id="Capa_1" data-name="Capa 1" xmlns="http://www.w3.org/2000/svg" viewBox="0 0 228.29 228.29"><defs><style>.cls-1{fill:#934761;}</style></defs><path class="cls-1" d="M114.17,211.88H43.58c-2.62,0-3.79-1-4.12-3.64,0-.39-.08-.79-.09-1.19-.35-13.62-.49-27.24-.22-40.86a114.52,114.52,0,0,1,1.27-16.95,41.48,41.48,0,0,1,9.5-20c8.71-10.38,20-16,33.29-17.91,9.69-1.38,19.42-1.22,29.17-1,5.39.1,10.78,0,16.18,0,12.35,0,24.56,1,35.61,7.3,11.76,6.71,19.94,16.32,23.26,29.67a58.17,58.17,0,0,1,1.31,10.69c.67,11.65.57,23.32.45,35-.06,5.07-.26,10.14-.42,15.2-.08,2.49-1.51,3.77-4.13,3.77Zm0-5.8h0q33.87,0,67.73,0c.89,0,1.3-.25,1.3-1.21,0-3,.16-6.08.18-9.11.07-13.69.45-27.4-.65-41.08a35.47,35.47,0,0,0-2.42-11.19c-4.71-11.21-12.94-18.86-24.07-23.43-7.7-3.16-15.87-4-24.08-4.06-10.35-.13-20.7,0-31-.07a121.57,121.57,0,0,0-16.73,1c-11.76,1.6-21.85,6.38-29.68,15.49a36.13,36.13,0,0,0-8.84,19.08,179.75,179.75,0,0,0-1.09,20.08c-.21,10.87,0,21.73.35,32.59.06,1.91.08,1.91,2,1.91Z"/><path class="cls-1" d="M114.49,16.4A44.52,44.52,0,1,1,70,60.78,44.6,44.6,0,0,1,114.49,16.4Zm0,5.78a38.71,38.71,0,1,0,38.72,38.69A38.57,38.57,0,0,0,114.51,22.18Z"/></svg>