<svg id="Capa_1" data-name="Capa 1" xmlns="http://www.w3.org/2000/svg" viewBox="0 0 228.29 228.29"><defs><style>.cls-1{fill:#f8c258;}</style></defs><path class="cls-1" d="M68.23,32.32h50a7.06,7.06,0,0,1,2.14.19,2.88,2.88,0,0,1,2.08,3.11c-.06.8-.12,1.6-.12,2.39q0,16.5,0,33c0,1.58,0,1.59,1.59,1.59H209.4a4.39,4.39,0,0,1,3,.64,3.9,3.9,0,0,1,1.52,3.24c0,3.6,0,7.2,0,10.8q0,38.76,0,77.51c0,2.81-.94,3.7-3.78,3.68-3.55,0-7.11,0-10.66-.05-1.19,0-1.49.43-1.49,1.54,0,7.24,0,14.48,0,21.72a9.68,9.68,0,0,1-.19,2,2.78,2.78,0,0,1-4.3,1.79,8.2,8.2,0,0,1-1.46-1.24Q179.86,182,167.68,169.8a4.06,4.06,0,0,0-3.14-1.32q-42.25,0-84.51,0c-.6,0-1.2,0-1.8,0a3.34,3.34,0,0,1-3.31-2.61,7.74,7.74,0,0,1-.17-2.14V118.38c0-1.77,0-1.77-1.79-1.78-11.59-.09-23.17-.11-34.76-.32-6.59-.11-13.18-.1-19.77-.17-3.8,0-4.78-1-4.78-4.76V42.71c0-2,0-4.08,0-6.12,0-3.2,1-4.27,4.23-4.27Zm123.9,153.54a1.6,1.6,0,0,0,.1-.45c-.06-6.52.2-13-.13-19.55a2.83,2.83,0,0,1,2.08-3,7.12,7.12,0,0,1,2-.21h10.19c1.89,0,1.89,0,1.89-1.92q0-40.26,0-80.51c0-2,0-2-1.95-2H82.49c-2,0-2,0-2,2q0,40.32,0,80.63c0,2,0,2,2.06,2q41.72,0,83.43,0a6.29,6.29,0,0,1,4.8,2c6.69,6.77,13.43,13.48,20.16,20.21C191.3,185.33,191.53,185.79,192.13,185.86ZM68,38.1H21.66c-2.24,0-2.24,0-2.24,2.18v67.91c0,.32,0,.64,0,1-.07.89.34,1.19,1.2,1.19,2.36,0,4.71.11,7.07.14,8.35.12,16.69,0,25,.22,6.79.16,13.58.09,20.38.12,1.63,0,1.64,0,1.64-1.69q0-16.08,0-32.15c0-3.48.9-4.38,4.42-4.38h35.71c1.8,0,1.8,0,1.8-1.75q0-15.48,0-30.95c0-1.8,0-1.8-1.77-1.8Z"/><path class="cls-1" d="M193.77,120a15,15,0,0,1-30-.19,15,15,0,1,1,30,.19Zm-5.83-.17a9.06,9.06,0,0,0-9.16-9.23,9.23,9.23,0,1,0,9.16,9.23Z"/><path class="cls-1" d="M159,119.8a15,15,0,0,1-30,.07,15.2,15.2,0,0,1,15-15.06A14.93,14.93,0,0,1,159,119.8Zm-5.82,0a9.09,9.09,0,0,0-9.15-9.24,9.24,9.24,0,1,0,0,18.47A9,9,0,0,0,153.2,119.83Z"/><path class="cls-1" d="M95.1,119.76a15,15,0,0,1,15-15,15,15,0,1,1-.16,30A15,15,0,0,1,95.1,119.76Zm15-9.17a9.24,9.24,0,1,0,0,18.47,9.14,9.14,0,0,0,9.29-9.25A9.27,9.27,0,0,0,110.07,110.59Z"/></svg>