<svg id="Capa_1" data-name="Capa 1" xmlns="http://www.w3.org/2000/svg" viewBox="0 0 228.29 228.29"><defs><style>.cls-1{fill:#fe4532;}</style></defs><path class="cls-1" d="M143,216c-10.51,0-21-.09-31.53,0-26.13.26-52.27.09-78.4.18q-.78,0-1.56,0c-2.35-.08-3.48-1.43-3.11-3.77,1.91-12,4.21-23.84,6.34-35.75q5.74-32.15,11.55-64.28,5.74-32,11.5-63.92c.49-2.71,2-4,4.8-4,1.72,0,3.44,0,5.15,0,1,0,1.4-.34,1.55-1.34a36.25,36.25,0,0,1,10.6-20.63,36.88,36.88,0,0,1,48.92-2.34,36,36,0,0,1,13.21,22.93c.2,1.26.68,1.66,1.92,1.61,2.24-.08,4.48,0,6.71,0,2.52,0,3.62,1,4.09,3.46.79,4.09,2.17,8,3.33,12q12.12,41.71,24.3,83.42,8.44,29,16.91,58l.24.8c.87,3.13.33,3.89-2.72,5.05-4,1.54-8,3.34-11.93,5l-6.84,2.91a7.21,7.21,0,0,1-2.91.59H143ZM37.14,210.45H41q56.28,0,112.55-.11c5.51,0,11-.09,16.54-.13.85,0,1.47,0,1.3-1.23-1.23-8.61-2.41-17.24-3.61-25.86q-2.34-16.85-4.7-33.69-2.56-18.51-5.13-37c-1.39-10-2.81-20.09-4.2-30.14s-2.79-20.09-4.15-30.14c-.16-1.2-.58-1.66-1.87-1.66-5.63,0-11.27,0-16.9-.07-22.05-.12-44.11-.09-66.16-.14-1,0-1.4.3-1.57,1.31-1.1,6.34-2.26,12.66-3.4,19q-5,27.41-9.89,54.82Q42.37,166.6,35,207.81C34.39,210.93,34.29,210.57,37.14,210.45Zm78.1-165.78v0H135c1.48,0,1.57-.13,1.29-1.61a31.14,31.14,0,0,0-61.19,0c-.24,1.36-.19,1.42,1.21,1.44,6.94.06,13.89,0,20.84.12C103.18,44.76,109.21,44.67,115.24,44.67Zm45.49,44.94h-.22c.47,3.43,1,6.86,1.43,10.3q2.69,19.4,5.38,38.8,2.58,18.63,5.18,37.26,2.24,16.08,4.48,32.15c.2,1.44.25,1.45,1.53.9,4.56-1.94,9.1-3.92,13.69-5.8,1.12-.46,1.41-.95,1.05-2.14-1.56-5.16-3-10.34-4.55-15.52l-20.61-70.64Q164.4,102.26,160.73,89.61Z"/><path class="cls-1" d="M67.14,132.31a36.85,36.85,0,1,1,37,37A36.91,36.91,0,0,1,67.14,132.31Zm54.6,25.63c-14.71,4.92-26.64-2.27-31.89-10a27.21,27.21,0,0,1,31.89-41C110.9,99,92.66,98.68,81,111.43a31.11,31.11,0,0,0,40.75,46.51Zm2.78-42.77c-7.31-5.74-19.81-5.83-27.79,2.35A21.61,21.61,0,0,0,96.34,147c8.32,8.89,21.27,8.41,28.25,2.8-12.47,1.45-20.29-7.77-20.42-17.1A17.58,17.58,0,0,1,124.52,115.17Zm-14.61,17.3a11.71,11.71,0,1,0,11.74-11.69A11.71,11.71,0,0,0,109.91,132.47Z"/></svg>