<svg id="Capa_1" data-name="Capa 1" xmlns="http://www.w3.org/2000/svg" viewBox="0 0 228.29 228.29"><defs><style>.cls-1{fill:#fff;}</style></defs><path class="cls-1" d="M134.8,215.63H63.36a6.81,6.81,0,0,1-2.25-.22,2.74,2.74,0,0,1-2-3.15,16,16,0,0,0,.15-2.39V159.05c0-.32,0-.64,0-1a3.93,3.93,0,0,1,4.23-4.16h40.27c2,0,2,0,2-1.95V101c0-3.44,2.12-5.55,5.59-5.55h44.23c1.78,0,1.78,0,1.78-1.77,0-18.38,0-36.76,0-55.14,0-2.94,1-4.66,4.67-4.68,15.34-.07,30.68,0,46,0,2.48,0,3.61,1.46,3.18,3.9a14.34,14.34,0,0,0-.13,2.27q0,85.05,0,170.09a9.18,9.18,0,0,1-.54,3.28,3.24,3.24,0,0,1-3.1,2.23c-.64,0-1.28,0-1.92,0Zm28.34-91.11v83.55c0,1.78,0,1.79,1.79,1.79h38.6c1.76,0,1.77,0,1.77-1.8V41.2c0-1.71,0-1.71-1.72-1.71H165.1c-2,0-2,0-2,1.95Zm-5.78,31V103.3c0-2.06,0-2.06-2-2.06H113.4c-2,0-2,0-2,1.94v105c0,1.69,0,1.7,1.74,1.7h42.43c1.78,0,1.78,0,1.78-1.8Zm-51.6,29c0-7.83,0-15.66,0-23.5,0-1.22-.37-1.55-1.57-1.54-12.51,0-25,0-37.52,0-1.62,0-1.64,0-1.64,1.58v47.11c0,1.56,0,1.6,1.63,1.6,12.51,0,25,0,37.53,0,1.19,0,1.57-.33,1.57-1.55C105.74,200.41,105.76,192.5,105.76,184.59Z"/><path class="cls-1" d="M119.4,56.73c-.12,0-.24,0-.36,0-2.23,0-2.24,0-3.08,2.11q-11.08,28.66-22.18,57.33a2.61,2.61,0,0,0,.11,2.37A9.72,9.72,0,0,1,77,128.17a1.9,1.9,0,0,0-1.85-1c-2.4,0-4.8.07-7.19,0-1,0-1.28.23-1.37,1.24-.43,4.87-3.31,8.23-7.76,9.13a9.1,9.1,0,0,1-5.86-.65c-.79-.38-1.18-.24-1.64.49q-7.2,11.53-14.45,23L22.83,182.89a6.24,6.24,0,0,1-1.44,1.75,2.73,2.73,0,0,1-4.31-2.88,8,8,0,0,1,1.07-2.13q14.61-23.24,29.22-46.46a2.41,2.41,0,0,0,.29-2.24,9.71,9.71,0,0,1,15.81-10.06,2.51,2.51,0,0,0,1.81.74c3,0,6.07-.06,9.1,0,.9,0,1.24-.34,1.47-1.17a9.74,9.74,0,0,1,11.62-7c.9.21,1.26,0,1.59-.82Q100.28,83.5,111.58,54.4a2.07,2.07,0,0,0-.17-2.09,9.74,9.74,0,0,1,7.87-15,7.11,7.11,0,0,1,3.17.52,2.49,2.49,0,0,0,2.82-.49q15.4-11.73,30.84-23.39c.29-.22.58-.44.88-.64a2.87,2.87,0,0,1,4.06.46c1,1.31.74,2.92-.72,4.11-1.08.89-2.21,1.71-3.33,2.56q-13.84,10.49-27.72,21a1.62,1.62,0,0,0-.69,2.25A9.63,9.63,0,0,1,119.4,56.73Zm.15-5.81a3.94,3.94,0,1,0,0-7.88,4,4,0,0,0-4.07,4A3.92,3.92,0,0,0,119.55,50.92ZM60.9,128a4,4,0,0,0-4.07-3.88,3.91,3.91,0,0,0-3.92,4,4,4,0,1,0,8-.1Zm24.31-1.09a4.06,4.06,0,0,0,4-4A4,4,0,0,0,85.07,119a3.85,3.85,0,0,0-3.87,4A3.89,3.89,0,0,0,85.21,126.9Z"/></svg>