<svg id="Capa_1" data-name="Capa 1" xmlns="http://www.w3.org/2000/svg" viewBox="0 0 228.29 228.29"><defs><style>.cls-1{fill:#fff;}</style></defs><path class="cls-1" d="M211.39,118.91c-.3,21.12-6.81,39.51-19.9,55.52a26.43,26.43,0,0,1-2,2.25c-.67.63-.56,1.06,0,1.66,2.19,2.16,4.32,4.38,6.5,6.55a6.83,6.83,0,0,1,2.19,5A64.88,64.88,0,0,0,199,198a16.73,16.73,0,0,1,.15,2.74,4.49,4.49,0,0,1-3.16,4.49,62.22,62.22,0,0,1-6.9,2c-2.78.6-5-.84-6.29-3.82a17.52,17.52,0,0,1-1.1-9.17,2.36,2.36,0,0,0-1-2.47c-1.21-.91-2.34-1.93-3.49-2.92a.75.75,0,0,0-1.12,0,85.82,85.82,0,0,1-90.89,6.81A83.94,83.94,0,0,1,59.92,175.4,85.89,85.89,0,0,1,48.38,81a1.83,1.83,0,0,0-.54-2.68c-7.37-6.19-14.67-12.47-22-18.7-4.11-3.49-7.41-7.47-8.5-13-1.47-7.38.89-13.61,5.59-19.17a27.51,27.51,0,0,1,4.6-4.36,11.38,11.38,0,0,1,4.32-2,5.71,5.71,0,0,1,5.7,1.63c5.54,5.64,11.05,11.32,16.57,17,4.56,4.66,9.13,9.3,13.67,14,.7.73,1.16.77,2,.09A85.94,85.94,0,0,1,165.57,43.5a84.45,84.45,0,0,1,38.15,40.67,83.34,83.34,0,0,1,7.48,31.28C211.25,116.76,211.34,118.08,211.39,118.91Zm-32.16-41a82.87,82.87,0,0,0-2-18.31,4.4,4.4,0,0,0-2-3.09c-.33-.2-.57-.71-1-.56s-.38.74-.4,1.15a76.9,76.9,0,0,1-1.47,11.52c-3.85,19.32-12.94,35.72-28,48.4-19.72,16.54-42.75,22.22-68.06,19.39a99.56,99.56,0,0,1-29.54-8.29c-1.12-.51-1.31-.38-1.15.88.35,2.81.9,5.59,1.43,8.38a5.57,5.57,0,0,0,2.26,3.49A80.06,80.06,0,0,0,95.07,158a76.76,76.76,0,0,0,29.15-4,81.1,81.1,0,0,0,35.65-24.41A77.54,77.54,0,0,0,179.23,77.94Zm5-12.81c2.84,23-1.82,44-15.66,62.7-13.71,18.48-31.68,30.62-54.57,34.63s-43.81-.78-63.35-13.38c.18.51.27.77.38,1a81.36,81.36,0,0,0,11.08,19,4.43,4.43,0,0,0,1.59,1.23,92.66,92.66,0,0,0,34.57,9A90,90,0,0,0,125,177a98,98,0,0,0,44.34-23.4,90.81,90.81,0,0,0,22.05-31.76,94.86,94.86,0,0,0,7.39-32.42,6.38,6.38,0,0,0-.36-3.17,83.82,83.82,0,0,0-9.52-15.78A39.8,39.8,0,0,0,184.21,65.13ZM106.55,92.9c-.16.41.23.73.57,1.08Q119.06,106.18,131,118.4a1.14,1.14,0,0,0,1.72.21A78,78,0,0,0,150.27,103a3.21,3.21,0,0,0,.76-3,96.29,96.29,0,0,1-1.17-32.17,97.61,97.61,0,0,1,5.25-21.37c.3-.79.44-1.35-.62-1.75a84.56,84.56,0,0,0-16.39-4.46,2.16,2.16,0,0,0-2,.64c-1.94,1.9-4,3.7-5.81,5.71A94.36,94.36,0,0,0,109,82.86,86.13,86.13,0,0,0,106.55,92.9ZM32.79,26.8a5.35,5.35,0,0,0-2,1,22.89,22.89,0,0,0-6.6,8A14.65,14.65,0,0,0,27,52.93c1.55,1.54,3.24,3,4.91,4.38Q50.13,72.87,68.38,88.39q22.43,19.14,44.82,38.29a1.79,1.79,0,0,0,2,.4,94.48,94.48,0,0,0,10.49-4.4c1-.5.83-.85.18-1.51-3.46-3.49-6.88-7-10.32-10.53L94.81,89.48q-10.77-11-21.54-22Q63.72,57.7,54.13,48c-.28-.28-.54-.59-.82-.88L33.94,27.31A1.27,1.27,0,0,0,32.79,26.8Zm96.47,12.45a88.16,88.16,0,0,0-12.36.34,11.63,11.63,0,0,0-5.36,1.53,92.77,92.77,0,0,0-27.16,28,1.25,1.25,0,0,0,.18,1.85c5.33,5.39,10.63,10.82,16,16.23.27.27.52.77.92.68s.42-.7.53-1.11A100.34,100.34,0,0,1,124.84,44C126.21,42.45,127.65,41,129.26,39.25ZM45,117.47c0,.84,0,1.68,0,2.52a1.42,1.42,0,0,0,.93,1.49A99.61,99.61,0,0,0,64,128.29c.92.24,1-.07.91-.87-.18-1.71-.29-3.43-.35-5.14a98.69,98.69,0,0,1,2.48-26,1.8,1.8,0,0,0-.72-2.06c-3.94-3.31-7.87-6.66-11.75-10-.79-.68-1.12-.71-1.6.29A80.12,80.12,0,0,0,45,117.47Zm43.66,14a100.36,100.36,0,0,0,11.1-.76c1.13-.12,1.48-.5,1.21-1.67-.4-1.7-.63-3.45-.87-5.19a2.4,2.4,0,0,0-.87-1.63l-25.79-22c-1-.89-1.18-.85-1.45.46a91.37,91.37,0,0,0-1.46,10.68,90,90,0,0,0,.31,17.45,1.25,1.25,0,0,0,1.24,1.28A93.9,93.9,0,0,0,88.64,131.45Zm60.22,64.87c-.24-.29-.27-.37-.34-.4a100.74,100.74,0,0,1-18.41-13.72,1.42,1.42,0,0,0-1.54-.23,100.22,100.22,0,0,1-28.12,3.23c-.57,0-1.15,0-1.73,0,0,.33.25.43.41.59a87.82,87.82,0,0,0,13.1,10.45c2.86,1.91,5.7,3.56,9.42,3.58a92.63,92.63,0,0,0,21.41-2C145,197.38,146.83,196.85,148.86,196.32Zm54.52-95.45c-.13.61-.19.87-.23,1.12a100.64,100.64,0,0,1-19.49,44.29c-.56.72-.43,1.12.16,1.7a93.45,93.45,0,0,0,11.35,9.17c.69.49,1,.21,1.27-.4.79-1.65,1.65-3.28,2.39-5A80.27,80.27,0,0,0,205.05,110,59.88,59.88,0,0,0,203.38,100.87Zm-67.3,78.89a2.34,2.34,0,0,0,.27.39,90.76,90.76,0,0,0,19,12.94,2.23,2.23,0,0,0,2.14,0A82.68,82.68,0,0,0,171,185.53c1.35-.94,1.35-.94.1-2-4.74-4-9.49-8.07-14.21-12.14a1.46,1.46,0,0,0-2-.22A102.46,102.46,0,0,1,138,179C137.36,179.26,136.75,179.51,136.08,179.76Zm19.88-85c.35-.48.56-.72.72-1a79.51,79.51,0,0,0,8.09-18.23,86.3,86.3,0,0,0,3.53-23.13,1.31,1.31,0,0,0-.81-1.31c-1.67-1-3.33-1.91-5-2.82s-1.71-.89-2.36.95a92.73,92.73,0,0,0-5,39.36A42.53,42.53,0,0,0,156,94.79ZM187.36,196a13.55,13.55,0,0,0,.45,4.43c.25.78.61,1.13,1.49.83,1.09-.38,2.21-.67,3.33-.95.66-.16.92-.44.82-1.17a42.29,42.29,0,0,1-.69-6.41,7.42,7.42,0,0,0-2.56-5.7c-7.63-7.67-15.14-15.45-22.67-23.21a.9.9,0,0,0-1.42-.1c-1.3,1-2.63,1.95-4,2.89-1.13.81-1.15.8,0,1.74q10.83,9.25,21.68,18.49a7.24,7.24,0,0,0,2,1.44,2.85,2.85,0,0,1,2,3.6A21.8,21.8,0,0,0,187.36,196Zm5.42-33.09c0-.41,0-.5-.69-1A106.18,106.18,0,0,1,180,152.21c-.56-.52-.88-.4-1.35.1-2.17,2.29-4.35,4.57-6.73,6.65-.46.4-.52.73-.07,1.18q6.21,6.31,12.39,12.66c.5.51.79.42,1.24-.09a74.83,74.83,0,0,0,6.9-9C192.52,163.42,192.66,163.14,192.78,162.93Zm-94.56-119a3.88,3.88,0,0,0-.45.14A80.39,80.39,0,0,0,73.44,58.1c-.64.54-.55.91,0,1.44,1.81,1.8,3.61,3.62,5.38,5.46.63.66,1,.7,1.53-.12,1-1.65,2.17-3.26,3.32-4.84A111.59,111.59,0,0,1,98.22,43.88Zm4.38,152.58a105.16,105.16,0,0,1-12.54-11.79,2.16,2.16,0,0,0-1.37-.65,91.52,91.52,0,0,1-9.14-1.91c-2.15-.57-4.28-1.19-6.43-1.79A75.88,75.88,0,0,0,102.6,196.46Z"/></svg>