<svg id="Capa_1" data-name="Capa 1" xmlns="http://www.w3.org/2000/svg" viewBox="0 0 228.29 228.29"><defs><style>.cls-1{fill:#0a222c;}</style></defs><path class="cls-1" d="M117.15,209.48a3.08,3.08,0,0,1-2.1-.92L102,197.09c-5-4.4-10-8.78-15-13.22a1.26,1.26,0,0,0-2,0c-.91.84-1.9,1.59-2.83,2.4a2.62,2.62,0,0,1-3.6.24,1.18,1.18,0,0,0-1.76,0c-6,4.91-12,9.78-18.06,14.67-2.34,1.91-3.78,1.8-5.67-.53Q36.83,180.76,20.68,160.8c-1.23-1.53-2.5-3-3.7-4.56-1.85-2.37-1.85-4.54.55-6.42,6-4.65,11.77-9.48,17.64-14.23,1.07-.87,1.08-1.05.11-2.06-2.67-2.78-2.62-3.78.38-6.2q18.5-15,37-29.95a13.29,13.29,0,0,0,2.56-2.84l40.42-58.83c1-1.51,1-1.51-.12-3l-1.35-1.69c-1.54-1.94-1.49-3.77.37-5.37,2.48-2.14,5-4.19,7.62-6.21,1.46-1.15,3.11-.82,4.42.76q5.55,6.69,11.08,13.41,15.07,18.27,30.14,36.56L193,100.76q7.69,9.36,15.42,18.69a7.69,7.69,0,0,1,1.3,1.86,2.91,2.91,0,0,1-1.08,3.5l-6.76,5.38a19.07,19.07,0,0,0-1.41,1.29,2.8,2.8,0,0,1-4.33,0C195,130.25,194,129,193,127.68a1.26,1.26,0,0,0-1.73-.47L134,149.15c-3.06,1.17-6.11,2.39-9.2,3.49a14.66,14.66,0,0,0-4.72,2.76q-2.58,2.23-5.31,4.3c-.76.59-.6.93,0,1.45L129,173.34c4.43,3.81,8.87,7.59,13.26,11.44,2.27,2,2.07,3.6-.27,5.47-6,4.72-11.84,9.52-17.73,14.31-1.68,1.36-3.42,2.65-5,4.15A2.81,2.81,0,0,1,117.15,209.48Zm5.11-62,1.37-.5,39.76-15.22,27.67-10.59a3.9,3.9,0,0,1,5,1.27c.62.73,1.22,1.48,1.81,2.24.45.59.87.71,1.48.18.9-.78,1.85-1.53,2.82-2.23.75-.54.7-1,.13-1.63q-15.9-19.23-31.75-38.48Q157.77,67,145,51.45,134.69,39,124.44,26.55c-.68-.83-1.15-.79-1.8-.12-.14.15-.31.26-.45.39-.74.66-2,1.08-2.15,2s1,1.68,1.66,2.49a4.13,4.13,0,0,1,.15,5.5q-20.4,29.64-40.78,59.3c-1.25,1.82-1.21,1.8.21,3.48q10.29,12.12,20.53,24.26L121.4,147C121.6,147.24,121.76,147.54,122.26,147.51Zm-5.55,3a2.52,2.52,0,0,0-.71-1.08l-19.34-22.9q-9.91-11.72-19.8-23.45c-.68-.8-1.13-.92-2-.2Q58.15,116.52,41.39,130c-.78.63-.78,1.06-.15,1.83,3.53,4.28,7,8.61,10.51,12.93Q65.67,162,79.58,179.17c.64.79,1.09.9,1.93.21,4-3.32,8-6.57,12.09-9.84l22.46-18.18C116.33,151.13,116.67,151,116.71,150.54ZM73.88,181.21c-.18-.24-.39-.53-.61-.8l-16-19.75q-8.34-10.31-16.66-20.61c-.6-.74-1-.76-1.72-.16Q31,146.31,23.13,152.64c-.83.67-.84,1.12-.18,1.93q11.18,13.73,22.28,27.49c3.45,4.25,6.91,8.5,10.33,12.77.56.7,1,.86,1.71.19,1.37-1.23,2.85-2.33,4.28-3.49q5.78-4.67,11.55-9.35C73.4,181.93,73.79,181.75,73.88,181.21Zm43.32,21.57a5.67,5.67,0,0,0,.73-.45q9-7.23,17.89-14.48c.49-.39.58-.68,0-1.11-.78-.62-1.51-1.3-2.27-2q-11.64-10-23.27-20c-.71-.61-1.13-.54-1.81,0-5.6,4.58-11.23,9.12-16.85,13.68-1.11.9-1.13,1,0,2,3,2.67,6.07,5.32,9.11,8l15.77,13.83C116.72,202.43,117,202.59,117.2,202.78Z"/><path class="cls-1" d="M175.46,26.21a11.71,11.71,0,0,1-.26,1.24q-2.37,8.29-4.76,16.59a9.19,9.19,0,0,1-.45,1.24,2.76,2.76,0,0,1-3.37,1.57,2.66,2.66,0,0,1-1.89-3.28c.65-2.63,1.43-5.24,2.17-7.85,1-3.46,2-6.92,3-10.36A3,3,0,0,1,173.05,23C174.51,23.18,175.49,24.36,175.46,26.21Z"/><path class="cls-1" d="M196.81,48.75a3.11,3.11,0,0,1-1.26,2.55L181.13,62.41a5.36,5.36,0,0,1-.49.34,2.83,2.83,0,1,1-3.36-4.55c1.76-1.43,3.59-2.8,5.39-4.18l9.11-7a3.15,3.15,0,0,1,3.55-.61A2.66,2.66,0,0,1,196.81,48.75Z"/><path class="cls-1" d="M192.51,82.78c-1.88,0-3-.86-3.21-2.23a2.8,2.8,0,0,1,2.4-3.32c3.81-.87,7.65-1.66,11.48-2.48,1.72-.37,3.44-.74,5.16-1.08a6.69,6.69,0,0,1,1.67-.13,2.61,2.61,0,0,1,2.49,1.91,2.67,2.67,0,0,1-1.11,3,4.86,4.86,0,0,1-1.88.73q-8,1.69-15.95,3.39C193.13,82.71,192.69,82.75,192.51,82.78Z"/></svg>