<svg id="Capa_1" data-name="Capa 1" xmlns="http://www.w3.org/2000/svg" viewBox="0 0 228.29 228.29"><defs><style>.cls-1{fill:#fff;}</style></defs><path class="cls-1" d="M114.54,33.59h95.78c.91,0,1.83,0,2.75,0a2.92,2.92,0,0,1,3.22,3.08c0,.8,0,1.6,0,2.4q0,61.92,0,123.82a21,21,0,0,1-.16,2.75,2.92,2.92,0,0,1-2.93,2.78c-.59.05-1.2,0-1.8,0H129.15c-2,0-2,0-2,2,0,3,0,6,0,9,0,1.06.33,1.37,1.38,1.36,6.67,0,13.34,0,20,0,3,0,4,1,4,4,0,2,0,4.08,0,6.12,0,2.59-1.06,3.62-3.65,3.62-15.66,0-31.32,0-47,.08-9.58.08-19.17.06-28.76.11-3.11,0-4.29-1.14-4.34-4.23,0-1.8,0-3.6,0-5.4,0-3.2,1.11-4.36,4.28-4.36H93.82c1.57,0,1.57,0,1.58-1.6,0-3,0-6.07,0-9.11,0-1.62,0-1.63-1.68-1.63H16.68c-.52,0-1,0-1.56,0A2.91,2.91,0,0,1,12.36,166a15.26,15.26,0,0,1-.37-3.09Q12,100.5,12,38.1c0-3.25,1.26-4.51,4.49-4.51Zm-.45,129.17h94.58c1.83,0,1.83,0,1.83-1.83q0-59.82,0-119.64c0-1.92,0-1.93-1.88-1.93H19.69c-1.92,0-1.92,0-1.92,1.93V160.93c0,1.83,0,1.83,1.85,1.83Zm-3.3,26.2v-.06h34.27a8,8,0,0,0,1.2,0c1-.17.6-1,.66-1.54s-.23-.83-.86-.82c-6.58,0-13.16,0-19.74,0-1.21,0-2.5.11-3.56-.76a3.87,3.87,0,0,1-1.24-3.23c0-4.27,0-8.55,0-12.82,0-1-.3-1.32-1.3-1.32q-8.87.06-17.73,0c-1,0-1.3.39-1.3,1.35,0,4.31-.11,8.62-.16,12.93,0,2.74-1,3.73-3.78,3.73H76.05c-1.37,0-1.49.2-1.47,1.51s.83,1,1.58,1.06Z"/><path class="cls-1" d="M113.93,43.94q43.94,0,87.87,0c4,0,5,1.09,5,5q-.09,52.74,0,105.49c0,3.1-1,4.12-4.09,4.11-58.86-.29-117.72-.06-176.58-.16-2.91,0-4-1.14-4-4.08,0-23.81.05-47.63-.08-71.45-.06-11.58,0-23.17-.1-34.76a9.31,9.31,0,0,1,.15-1.9,2.82,2.82,0,0,1,2.72-2.29c.55,0,1.12,0,1.67,0h87.52Zm.47,108.77v0h85c1.72,0,1.73,0,1.73-1.69V51.43c0-1.71,0-1.71-1.71-1.71-36-.1-71.92.06-107.87-.17-20.66-.13-41.32,0-62,0-1.92,0-1.92,0-1.92,1.87l.06,99.37c0,2,0,2,1.95,2Z"/><path class="cls-1" d="M150.37,82.61H129.05c-2.31,0-3.71-1.06-3.76-2.79s1.39-2.9,3.76-2.9c7.94,0,15.88,0,23.81,0l18.3-.06a13.61,13.61,0,0,1,1.91.12,2.78,2.78,0,0,1,2.5,2.75,2.83,2.83,0,0,1-2.44,2.83,9.94,9.94,0,0,1-1.55.07Z"/><path class="cls-1" d="M79.58,114.79a3.69,3.69,0,0,1,1.32-2.72q5.43-5.4,10.84-10.84c1.18-1.17,1.18-1.18,0-2.39L81.29,88.42a9.67,9.67,0,0,1-1-1.06,3,3,0,0,1,.19-3.57,2.91,2.91,0,0,1,3.4-.63,5,5,0,0,1,1.41,1.1L98.9,97.79a2.91,2.91,0,0,1,.09,4.37q-7.17,7.23-14.4,14.39a2.83,2.83,0,0,1-3.29.75A2.62,2.62,0,0,1,79.58,114.79Z"/><path class="cls-1" d="M47.69,100.41a3.4,3.4,0,0,1,1.07-2.47q7-7,14-14c1.26-1.24,2.6-1.5,3.8-.85a2.85,2.85,0,0,1,.67,4.51c-.89,1-1.89,1.95-2.85,2.91-2.94,2.94-5.86,5.89-8.83,8.8-.7.68-.75,1.1,0,1.81,3.7,3.64,7.36,7.33,11,11a3.3,3.3,0,0,1,1.23,2.74A2.8,2.8,0,0,1,63.49,117a6.7,6.7,0,0,1-1.18-1q-6.83-6.73-13.63-13.49A3.07,3.07,0,0,1,47.69,100.41Z"/><path class="cls-1" d="M120.59,126.26a9.74,9.74,0,0,1,19.48,0,9.91,9.91,0,0,1-9.86,9.71A9.71,9.71,0,0,1,120.59,126.26Zm9.7,4a3.83,3.83,0,0,0,4-3.92,4,4,0,0,0-4-4,4,4,0,0,0-4,3.9A3.9,3.9,0,0,0,130.29,130.24Z"/><path class="cls-1" d="M168.79,126a9.77,9.77,0,0,1,9.74-9.65,9.92,9.92,0,0,1,9.71,9.74,9.73,9.73,0,1,1-19.45-.09Zm9.53,4a3.94,3.94,0,0,0,4.14-3.76,3.9,3.9,0,0,0-3.88-4.14,4,4,0,0,0-4.11,3.84A3.9,3.9,0,0,0,178.32,130Z"/><path class="cls-1" d="M154.41,116.75a9.74,9.74,0,0,1,0,19.48,10,10,0,0,1-9.83-9.89A9.72,9.72,0,0,1,154.41,116.75Zm-4,9.64a3.95,3.95,0,1,0,4-4A4,4,0,0,0,150.39,126.39Z"/><path class="cls-1" d="M161.12,97.15H151.07A5.88,5.88,0,0,1,149.3,97a2.84,2.84,0,0,1,.38-5.56,8,8,0,0,1,1.2,0q10.23,0,20.46,0c2.46,0,3.89,1.07,3.9,2.9s-1.48,2.9-4,2.91Z"/></svg>